HIERARCHY
ROOT Hips
{
	OFFSET 0.00000 0.00000 0.00000
	CHANNELS 6 Xposition Yposition Zposition Zrotation Yrotation Xrotation 
	JOINT LHipJoint
	{
		OFFSET 0 0 0
		CHANNELS 3 Zrotation Yrotation Xrotation
		JOINT LeftHip
		{
			OFFSET 1.17584 -1.63585 1.00361
			CHANNELS 3 Zrotation Yrotation Xrotation
			JOINT LeftKnee
			{
				OFFSET 2.23889 -6.15131 0.00000
				CHANNELS 3 Zrotation Yrotation Xrotation
				JOINT LeftAnkle
				{
					OFFSET 2.65161 -7.28525 0.00000
					CHANNELS 3 Zrotation Yrotation Xrotation
					JOINT LeftToe
					{
						OFFSET 0.24898 -0.68407 1.57235
						CHANNELS 3 Zrotation Yrotation Xrotation
						End Site
						{
							OFFSET 0.00000 -0.00000 0.85838
						}
					}
				}
			}
		}
	}
	JOINT RHipJoint
	{
		OFFSET 0 0 0
		CHANNELS 3 Zrotation Yrotation Xrotation
		JOINT RightHip
		{
			OFFSET -1.15592 -1.63585 1.00361
			CHANNELS 3 Zrotation Yrotation Xrotation
			JOINT RightKnee
			{
				OFFSET -2.34071 -6.43104 0.00000
				CHANNELS 3 Zrotation Yrotation Xrotation
				JOINT RightAnkle
				{
					OFFSET -2.59113 -7.11908 0.00000
					CHANNELS 3 Zrotation Yrotation Xrotation
					JOINT RightToe
					{
						OFFSET -0.17867 -0.49089 1.70981
						CHANNELS 3 Zrotation Yrotation Xrotation
						End Site
						{
							OFFSET -0.00000 -0.00000 0.89861
						}
					}
				}
			}
		}
	}
	JOINT lowerback
	{
		OFFSET 0 0 0
		CHANNELS 3 Zrotation Yrotation Xrotation
		JOINT Chest
		{
			OFFSET -0.02255 1.90764 -0.16605
			CHANNELS 3 Zrotation Yrotation Xrotation
			JOINT Chest2
			{
				OFFSET -0.00365 1.92150 -0.04898
				CHANNELS 3 Zrotation Yrotation Xrotation
				JOINT lowerneck
				{
					OFFSET 0 0 0
					CHANNELS 3 Zrotation Yrotation Xrotation
					JOINT Neck
					{
						OFFSET 0.00372 1.59170 0.08694
						CHANNELS 3 Zrotation Yrotation Xrotation
						JOINT Head
						{
							OFFSET 0.12558 1.58643 -0.08078
							CHANNELS 3 Zrotation Yrotation Xrotation
							End Site
							{
								OFFSET 0.04211 1.60835 -0.03803
							}
						}
					}
				}
				JOINT LeftCollar
				{
					OFFSET 0 0 0
					CHANNELS 3 Zrotation Yrotation Xrotation
					JOINT LeftShoulder
					{
						OFFSET 3.69324 0.96316 0.19077
CHANNELS 3 Zrotation Xrotation Yrotation
						JOINT LeftElbow
						{
OFFSET 0 -4.877960 -0.000000
CHANNELS 3 Zrotation Xrotation Yrotation
							JOINT LeftWrist
							{
OFFSET 0 -3.231690 0.000000
CHANNELS 3 Zrotation Xrotation Yrotation
								JOINT lhand
								{
									OFFSET 0 0 0
CHANNELS 3 Zrotation Xrotation Yrotation
									JOINT LFingers
									{
OFFSET 0 -0.731320 0.000000
CHANNELS 3 Zrotation Xrotation Yrotation
										End Site
										{
OFFSET 0 -0.589610 0.000000
										}
									}
								}
								JOINT LThumb
								{
OFFSET 0 0.000000 0.000000
CHANNELS 3 Zrotation Xrotation Yrotation
									End Site
									{
OFFSET 0 -0.598610 0.598610
									}
								}
							}
						}
					}
				}
				JOINT RightCollar
				{
					OFFSET 0 0 0
					CHANNELS 3 Zrotation Yrotation Xrotation
					JOINT RightShoulder
					{
						OFFSET -3.66103 0.75145 0.08281
CHANNELS 3 Zrotation Xrotation Yrotation
						JOINT RightElbow
						{
OFFSET 0 -4.914300 0.000000
CHANNELS 3 Zrotation Xrotation Yrotation
							JOINT RightWrist
							{
OFFSET 0 -3.290930 0.000000
CHANNELS 3 Zrotation Xrotation Yrotation
								JOINT rhand
								{
									OFFSET 0 0 0
CHANNELS 3 Zrotation Xrotation Yrotation
									JOINT RFingers
									{
OFFSET 0 -0.545120 0.000000
CHANNELS 3 Zrotation Xrotation Yrotation
										End Site
										{
OFFSET 0 -0.439490 0.000000
										}
									}
								}
								JOINT RThumb
								{
OFFSET 0 0.000000 0.000000
CHANNELS 3 Zrotation Xrotation Yrotation
									End Site
									{
OFFSET 0 -0.446200 0.446200
									}
								}
							}
						}
					}
				}
			}
		}
	}
}
MOTION
Frames: 8
Frame Time: 0.008333333333333333
26.334092 15.610489 -0.636893 182.077541 -147.419898 -175.749492 0.000000 0.000000 0.000000 -13.554672 1.987824 -30.402798 8.571822 16.523863 54.596812 2.101022 -15.258126 -26.601755 1.556809 -7.874302 -22.333012 0.000000 0.000000 0.000000 -7.068692 16.725697 -34.360390 -11.085311 -17.976576 63.058231 -0.017754 -2.804609 -4.948892 -2.264300 9.379175 -27.001806 -3.957803 -1.326470 4.657158 0.115760 -1.917875 4.132657 2.391146 -1.069430 1.782654 -7.221697 -13.640969 4.546941 13.953963 -17.559233 -15.949890 5.908406 -9.250037 -3.544050 0.000000 0.000000 0.000000 7.791858 -14.006593 -58.057776 20.710714 -31.483340 5.900817 45.137427 -11.862161 33.567534 0.000000 0.000000 0.000000 -7.125000 0.000000 0.000000 6.736024 -13.010197 8.129888 0.000000 0.000000 0.000000 -3.518035 -10.852938 34.803049 -18.489525 -28.772701 -4.786042 -18.678891 9.999821 17.668734 0.000000 0.000000 0.000000 7.125000 0.000000 0.000000 9.046898 48.353778 -0.757883
26.412094 15.652083 -0.586667 182.158035 -148.442793 -175.512349 0.000000 0.000000 0.000000 -14.234887 1.046706 -30.002064 8.291823 16.329518 53.606680 2.213255 -14.849345 -27.184311 1.489895 -7.711158 -21.840034 0.000000 0.000000 0.000000 -6.351769 17.331492 -34.079388 -11.048068 -17.958541 62.937537 -0.007857 -4.212932 -6.319580 -1.422130 7.528295 -21.296780 -3.843754 -1.466294 4.444975 0.170594 -2.091391 4.004833 2.383864 -1.150958 1.778531 -7.244594 -13.909109 4.649511 14.019097 -17.916819 -16.086439 5.939579 -9.433163 -3.556238 0.000000 0.000000 0.000000 8.064430 -13.797408 -57.339342 18.775702 -29.135985 4.922728 43.309398 -10.784106 32.815958 0.000000 0.000000 0.000000 -7.125000 0.000000 0.000000 6.004654 -11.367603 7.106240 0.000000 0.000000 0.000000 -3.486850 -9.940388 30.829985 -16.455104 -26.130599 -3.846081 -18.316200 10.338981 19.499111 0.000000 0.000000 0.000000 7.125000 0.000000 0.000000 9.960050 50.171140 -1.282311
26.476088 15.720277 -0.540997 182.090982 -149.864915 -175.090927 0.000000 0.000000 0.000000 -14.711050 -0.518364 -29.428663 7.951661 16.082938 52.387305 2.298111 -14.096737 -27.564974 1.490765 -7.713256 -21.846453 0.000000 0.000000 0.000000 -5.100492 17.728438 -33.573976 -10.877909 -17.874624 62.384117 -0.019035 -4.796067 -7.462395 -0.877383 5.959390 -16.670160 -3.596385 -1.655176 4.233882 0.241957 -2.327546 3.846212 2.320353 -1.259624 1.740769 -7.152643 -14.238352 4.618460 14.070805 -18.345023 -16.164106 5.934724 -9.652876 -3.533975 0.000000 0.000000 0.000000 8.315149 -13.636989 -56.361366 16.886032 -26.700929 4.039447 40.871717 -8.355114 31.366145 0.000000 0.000000 0.000000 -7.125000 0.000000 0.000000 5.103456 -8.762409 5.846881 0.000000 0.000000 0.000000 -3.618592 -8.842592 26.918810 -14.542851 -23.499305 -3.045080 -18.180620 11.175746 21.498197 0.000000 0.000000 0.000000 7.125000 0.000000 0.000000 10.809186 52.177215 -1.933301
26.526818 15.808089 -0.502162 181.963341 -151.588811 -174.587170 0.000000 0.000000 0.000000 -15.016741 -2.505783 -28.729726 7.574719 15.797217 51.015693 2.314916 -13.259120 -27.560238 1.505262 -7.749031 -21.954271 0.000000 0.000000 0.000000 -3.464030 18.016835 -32.935056 -10.620495 -17.744206 61.542793 -0.051806 -4.723809 -8.320535 -0.693515 5.323576 -14.833926 -3.366722 -1.877303 4.090368 0.351534 -2.611969 3.672158 2.309147 -1.392758 1.654369 -7.045463 -14.626324 4.499141 14.156248 -18.843855 -16.257543 5.928076 -9.909283 -3.492824 0.000000 0.000000 0.000000 8.475631 -13.502162 -54.796216 15.092780 -24.274346 3.264527 37.734112 -4.524004 29.345355 0.000000 0.000000 0.000000 -7.125000 0.000000 0.000000 3.887972 -5.357816 4.244978 0.000000 0.000000 0.000000 -3.879347 -7.546904 23.073606 -12.776947 -20.958777 -2.373413 -17.637253 12.597453 23.476761 0.000000 0.000000 0.000000 7.125000 0.000000 0.000000 12.163861 54.068890 -2.743960
26.563025 15.912916 -0.470342 181.894412 -153.553092 -174.064045 0.000000 0.000000 0.000000 -15.239992 -4.669510 -27.981697 7.164273 15.467721 49.491253 2.224083 -12.581898 -26.955883 1.464968 -7.649059 -21.653248 0.000000 0.000000 0.000000 -1.579095 18.166550 -32.304860 -10.311505 -17.580964 60.523994 -0.111582 -4.026206 -9.071911 -0.825221 5.791741 -16.182462 -3.349412 -2.146929 4.020088 0.556771 -2.969137 3.488532 2.518861 -1.567724 1.538170 -7.156401 -15.031327 4.355317 14.381736 -19.367071 -16.423761 5.986924 -10.176534 -3.429269 0.000000 0.000000 0.000000 8.370750 -13.387045 -52.053110 13.425911 -21.903797 2.612921 33.936561 0.585897 27.067052 0.000000 0.000000 0.000000 -7.125000 0.000000 0.000000 2.208654 -1.639799 2.282946 0.000000 0.000000 0.000000 -4.367216 -5.978110 19.456679 -11.267911 -18.694670 -1.863197 -16.103210 14.579901 25.165917 0.000000 0.000000 0.000000 7.125000 0.000000 0.000000 14.535085 55.443273 -3.791684
26.588400 16.029681 -0.441560 181.908907 -155.636327 -173.528568 0.000000 0.000000 0.000000 -15.454247 -6.644785 -27.307350 6.732116 15.101318 47.852253 2.046131 -12.149840 -25.833586 1.398292 -7.480373 -21.146567 0.000000 0.000000 0.000000 0.409377 18.266090 -31.759350 -9.982150 -17.399523 59.428238 -0.196050 -2.905558 -9.955892 -0.986203 6.320612 -17.717593 -3.471102 -2.432849 3.954500 0.792126 -3.352174 3.296791 2.838028 -1.758694 1.425878 -7.415147 -15.444456 4.242983 14.730584 -19.899563 -16.649465 6.101041 -10.450635 -3.356350 0.000000 0.000000 0.000000 8.141665 -13.266987 -48.223091 11.895051 -19.644844 2.068525 30.121534 6.092179 24.873477 0.000000 0.000000 0.000000 -7.125000 0.000000 0.000000 0.349516 1.782748 0.345167 0.000000 0.000000 0.000000 -4.942006 -4.130440 16.154152 -10.050553 -16.817568 -1.490362 -13.854761 16.929633 26.411537 0.000000 0.000000 0.000000 7.125000 0.000000 0.000000 17.505539 56.201686 -4.918210
26.604383 16.157954 -0.414394 181.979496 -157.859519 -172.954145 0.000000 0.000000 0.000000 -15.632977 -8.240709 -26.813911 6.295029 14.707504 46.153230 1.790270 -12.107379 -24.208694 1.329021 -7.300252 -20.608112 0.000000 0.000000 0.000000 2.502446 18.318072 -31.330327 -9.634986 -17.199141 58.260906 -0.289984 -1.572907 -10.870967 -1.100703 6.665573 -18.728613 -3.629630 -2.756170 3.876620 1.012399 -3.785564 3.081326 3.162833 -1.974235 1.306441 -7.714895 -15.842322 4.160318 15.138818 -20.409025 -16.880826 6.236171 -10.715828 -3.277744 0.000000 0.000000 0.000000 7.970841 -13.072855 -43.463959 10.569593 -17.623981 1.644466 26.907482 11.329717 22.819081 0.000000 0.000000 0.000000 -7.125000 0.000000 0.000000 -1.313253 4.721639 -1.195887 0.000000 0.000000 0.000000 -5.477230 -1.958423 13.574949 -9.199262 -15.476960 -1.253249 -11.606354 19.554696 27.219305 0.000000 0.000000 0.000000 7.125000 0.000000 0.000000 20.275808 56.509803 -5.891633
26.614020 16.292472 -0.388392 182.072938 -160.271040 -172.311022 0.000000 0.000000 0.000000 -15.725776 -9.367330 -26.640492 5.889453 14.319447 44.534723 1.477105 -12.588648 -22.181948 1.286819 -7.188024 -20.273636 0.000000 0.000000 0.000000 4.694337 18.259251 -31.092226 -9.271723 -16.978928 57.024292 -0.373271 -0.228653 -11.629982 -1.366628 7.392952 -20.887647 -3.749848 -3.149320 3.794950 1.204998 -4.310859 2.807398 3.440647 -2.232080 1.137706 -7.986100 -16.236228 3.995778 15.453987 -20.924994 -16.905802 6.315191 -10.974727 -3.134783 0.000000 0.000000 0.000000 8.035744 -12.665985 -38.413089 9.581097 -16.080919 1.357277 24.574044 15.523577 20.749429 0.000000 0.000000 0.000000 -7.125000 0.000000 0.000000 -2.536713 7.378959 -2.187119 0.000000 0.000000 0.000000 -5.929815 0.621706 12.620698 -8.768282 -14.790324 -1.140316 -9.748864 21.665811 27.688411 0.000000 0.000000 0.000000 7.125000 0.000000 0.000000 22.447435 56.566623 -6.596197
